<?xml version="1.0" standalone="no"?>
<!DOCTYPE svg PUBLIC "-//W3C//DTD SVG 20010904//EN"
 "http://www.w3.org/TR/2001/REC-SVG-20010904/DTD/svg10.dtd">
<svg version="1.0" xmlns="http://www.w3.org/2000/svg"
 width="522.000000pt" height="478.000000pt" viewBox="0 0 522.000000 478.000000"
 preserveAspectRatio="xMidYMid meet">

<g transform="translate(0.000000,478.000000) scale(0.100000,-0.100000)"
fill="#000000" stroke="none">
<path d="M1882 4208 l3 -183 2 177 3 178 403 3 402 2 -407 3 -408 2 2 -182z"/>
<path d="M2725 4370 c-8 -12 2 -30 17 -30 5 0 8 7 4 15 -7 20 8 19 28 -1 20
-20 20 -25 0 -17 -9 3 -20 0 -25 -8 -8 -12 -10 -12 -18 0 -11 17 -37 22 -68
14 -31 -7 -29 -23 3 -23 14 0 23 4 19 10 -7 11 8 14 18 3 9 -8 -24 -32 -45
-33 -12 0 -19 -12 -23 -44 -16 -106 -33 -324 -34 -438 -1 -103 -15 -125 -19
-30 -1 36 -4 68 -7 70 -2 2 -14 -5 -26 -17 -13 -12 -26 -21 -29 -21 -4 0 -12
-11 -18 -25 -7 -14 -20 -25 -31 -25 -11 0 -26 -7 -35 -15 -8 -8 -18 -15 -22
-15 -3 0 -27 -21 -53 -46 -25 -26 -65 -56 -89 -66 -24 -11 -46 -26 -49 -34 -3
-8 -16 -14 -29 -14 -16 0 -42 -18 -75 -50 -28 -27 -52 -50 -54 -50 -2 0 -11
26 -20 58 -29 96 -47 155 -62 195 -7 21 -15 54 -18 74 -6 46 -14 54 -13 13 1
-18 -4 -35 -10 -39 -6 -3 -14 -20 -17 -36 -6 -24 -5 -28 5 -18 7 6 19 9 26 6
21 -8 17 -33 -6 -33 -11 0 -20 -4 -20 -10 0 -5 9 -10 20 -10 11 0 20 -4 20
-10 0 -5 -7 -7 -15 -4 -11 4 -13 0 -9 -18 3 -12 7 -36 10 -53 8 -55 97 -314
105 -309 5 3 6 -1 4 -8 -6 -15 69 -183 137 -308 192 -352 500 -684 839 -905
85 -56 254 -155 264 -155 2 0 42 -18 90 -41 48 -22 119 -51 159 -65 39 -14 80
-29 91 -34 66 -30 345 -93 485 -111 52 -7 185 -13 295 -13 l200 -1 3 395 c2
318 -1 412 -13 484 -41 234 -191 438 -400 542 -149 74 -162 76 -510 83 l-310
6 -6 315 c-5 281 -8 321 -26 375 -50 145 -104 235 -200 326 -84 81 -113 100
-137 94 -15 -5 -17 -4 -7 3 11 8 8 13 -16 26 -17 8 -33 12 -37 9 -3 -4 -6 -1
-6 6 0 8 -7 11 -15 7 -9 -3 -18 1 -22 10 -3 8 -12 13 -19 10 -8 -3 -14 -2 -14
3 0 16 -52 23 -61 9 -7 -10 -9 -9 -9 5 0 9 -5 17 -11 17 -5 0 -7 -4 -4 -10 3
-6 -1 -7 -9 -4 -9 3 -16 10 -16 15 0 12 -47 11 -55 -1z m145 -42 c0 -6 -6 -5
-15 2 -8 7 -15 14 -15 16 0 2 7 1 15 -2 8 -4 15 -11 15 -16z m-45 -27 c-6 -5
-25 10 -25 20 0 5 6 4 14 -3 8 -7 12 -15 11 -17z m-35 9 c0 -5 -5 -10 -11 -10
-5 0 -7 5 -4 10 3 6 8 10 11 10 2 0 4 -4 4 -10z m-790 -664 c0 -2 -8 -10 -17
-17 -16 -13 -17 -12 -4 4 13 16 21 21 21 13z m270 -81 c-7 -8 -16 -15 -21 -15
-5 0 -9 7 -9 15 0 9 9 15 21 15 18 0 19 -2 9 -15z m90 10 c0 -2 -9 -9 -20 -15
-16 -9 -20 -8 -20 5 0 8 9 15 20 15 11 0 20 -2 20 -5z m-252 -180 c-3 -3 -9 2
-12 12 -6 14 -5 15 5 6 7 -7 10 -15 7 -18z"/>
<path d="M1892 3945 c0 -16 2 -22 5 -12 2 9 2 23 0 30 -3 6 -5 -1 -5 -18z"/>
<path d="M1175 3860 c-3 -5 -13 -7 -23 -4 -14 5 -14 4 -2 -4 8 -6 19 -7 25 -3
5 5 17 11 25 14 12 4 12 6 -2 6 -9 1 -19 -3 -23 -9z"/>
<path d="M1280 3862 c0 -6 -8 -13 -17 -16 -15 -4 -14 -4 2 -3 37 2 165 -48
165 -65 0 -4 -5 -10 -11 -14 -7 -4 -8 -9 -1 -13 7 -4 5 -13 -4 -25 -12 -17
-14 -18 -14 -3 0 12 -12 5 -37 -23 -21 -23 -57 -61 -80 -85 -24 -24 -43 -48
-43 -53 0 -5 -12 -19 -27 -32 -24 -21 -26 -25 -10 -28 22 -4 18 -24 -6 -28
-10 -1 -17 5 -18 14 0 14 -1 15 -7 2 -15 -32 -45 -70 -56 -70 -14 0 -50 -65
-43 -77 3 -5 -3 -9 -15 -9 -12 1 -23 -5 -26 -13 -3 -8 0 -11 7 -7 6 4 11 4 11
-1 0 -13 -13 -27 -36 -40 -18 -10 -24 -7 -49 23 -15 18 -33 30 -39 27 -6 -4
-5 1 3 10 9 11 10 17 2 17 -6 0 -11 10 -11 23 0 12 -5 29 -11 37 -8 11 -9 8
-4 -15 6 -29 6 -29 -10 -10 -16 20 -16 19 -9 -4 9 -32 33 -88 34 -78 0 4 6 2
14 -5 9 -8 10 -15 4 -19 -20 -13 82 -108 151 -142 61 -30 72 -32 171 -32 92 0
112 3 160 26 113 53 211 186 223 303 12 121 -31 245 -113 326 -44 44 -110 83
-137 83 -7 0 -13 4 -13 9 0 4 -7 8 -16 8 -8 0 -13 -4 -10 -8 8 -13 -40 -8 -57
7 -10 8 -17 9 -17 3z m-140 -466 c0 -3 -4 -8 -10 -11 -5 -3 -10 -1 -10 4 0 6
5 11 10 11 6 0 10 -2 10 -4z m-100 -152 c0 -8 -19 -13 -24 -6 -3 5 1 9 9 9 8
0 15 -2 15 -3z"/>
<path d="M1315 3860 c4 -6 11 -8 16 -5 14 9 11 15 -7 15 -8 0 -12 -5 -9 -10z"/>
<path d="M1110 3846 c0 -2 7 -7 16 -10 8 -3 12 -2 9 4 -6 10 -25 14 -25 6z"/>
<path d="M1912 3790 c0 -14 2 -19 5 -12 2 6 2 18 0 25 -3 6 -5 1 -5 -13z"/>
<path d="M994 3768 l-29 -33 33 29 c30 28 37 36 29 36 -2 0 -16 -15 -33 -32z"/>
<path d="M930 3696 c0 -2 7 -7 16 -10 8 -3 12 -2 9 4 -6 10 -25 14 -25 6z"/>
<path d="M872 3540 c0 -14 2 -19 5 -12 2 6 2 18 0 25 -3 6 -5 1 -5 -13z"/>
<path d="M871 3434 c0 -11 3 -14 6 -6 3 7 2 16 -1 19 -3 4 -6 -2 -5 -13z"/>
<path d="M650 2416 c0 -235 3 -425 8 -423 4 3 8 -16 8 -42 3 -105 82 -266 186
-376 71 -76 131 -123 214 -164 140 -70 210 -81 545 -81 l267 0 5 -292 c6 -325
13 -377 70 -500 75 -164 204 -294 365 -370 142 -67 166 -70 646 -75 l428 -5
-5 249 c-5 254 -20 373 -72 573 -82 316 -238 638 -440 908 -85 115 -352 390
-448 463 -222 167 -439 293 -637 370 -41 16 -84 34 -95 39 -30 13 -139 46
-245 74 -187 49 -331 67 -572 73 l-228 6 0 -427z m42 387 c-10 -16 -22 -35
-25 -43 -3 -8 -6 4 -6 28 -1 39 1 42 25 42 l25 0 -19 -27z m28 -23 c0 -11 -2
-20 -4 -20 -2 0 -6 9 -9 20 -3 11 -1 20 4 20 5 0 9 -9 9 -20z m-3 -52 c-3 -8
-6 -5 -6 6 -1 11 2 17 5 13 3 -3 4 -12 1 -19z m-50 -10 c-3 -8 -6 -5 -6 6 -1
11 2 17 5 13 3 -3 4 -12 1 -19z m20 0 c-3 -8 -6 -5 -6 6 -1 11 2 17 5 13 3 -3
4 -12 1 -19z m-20 -120 c-2 -18 -4 -4 -4 32 0 36 2 50 4 33 2 -18 2 -48 0 -65z"/>
</g>
</svg>
